<svg id="Layer_1" data-name="Layer 1" xmlns="http://www.w3.org/2000/svg" viewBox="0 0 512 512"><defs><style>.cls-1{fill:#fff;}.cls-2{fill:#212a33;}</style></defs><title>user_placeholder</title><rect class="cls-1" width="512" height="512" rx="40.31"/><path class="cls-2" d="M253.85,249.81c22.47,0,41.91-8,57.79-23.95s24-35.33,24-57.79-8.06-41.9-24-57.79S276.3,86.34,253.85,86.34s-41.9,8-57.79,23.94-23.95,35.33-23.95,57.79,8.06,41.91,23.95,57.8S231.4,249.81,253.85,249.81Z"/><path class="cls-2" d="M396.88,347.29a200.75,200.75,0,0,0-2.76-21.44,169.82,169.82,0,0,0-5.26-21.56A107,107,0,0,0,380,284.18a75.92,75.92,0,0,0-13.35-17.42,59.19,59.19,0,0,0-19.21-12.06,66.4,66.4,0,0,0-24.51-4.43c-3.46,0-6.81,1.42-13.28,5.63-4,2.6-8.64,5.6-13.84,8.92a79.09,79.09,0,0,1-17.91,7.89,69.51,69.51,0,0,1-43.8,0,79.21,79.21,0,0,1-17.9-7.89c-5.15-3.29-9.81-6.29-13.85-8.92-6.46-4.22-9.81-5.64-13.28-5.64a66.43,66.43,0,0,0-24.5,4.44,58.94,58.94,0,0,0-19.21,12.07A76.19,76.19,0,0,0,132,284.18a107.62,107.62,0,0,0-8.86,20.11,171.58,171.58,0,0,0-5.27,21.56,206.52,206.52,0,0,0-2.75,21.45c-.44,6.49-.68,13.23-.68,20,0,17.71,5.63,32.06,16.75,42.63s25.47,15.73,43.13,15.73H337.7c17.65,0,32.16-5.29,43.13-15.73S397.57,385,397.57,367.3C397.55,360.5,397.32,353.75,396.88,347.29Z"/></svg>