<?xml version="1.0" encoding="utf-8"?>
<!-- Generator: Adobe Illustrator 24.0.0, SVG Export Plug-In . SVG Version: 6.00 Build 0)  -->
<svg version="1.1" id="Capa_1" xmlns="http://www.w3.org/2000/svg" xmlns:xlink="http://www.w3.org/1999/xlink" x="0px" y="0px"
	 viewBox="0 0 512 512" style="enable-background:new 0 0 512 512;" xml:space="preserve">
<style type="text/css">
	.st0{fill:#FFFFFF;}
</style>
<g>
	<g>
		<g>
			<path class="st0" d="M458.7,288c29.4,0,53.3-23.9,53.3-53.3V64c0-29.4-23.9-53.3-53.3-53.3h-64c-12,0-23.1,4.1-32,10.8V288H458.7
				z"/>
		</g>
	</g>
	<g>
		<g>
			<path class="st0" d="M0,208c0,12.8,5.1,24.8,13.9,33.6c-10,10.9-15,25.5-13.7,40.7c2.5,27.1,26.9,48.4,55.6,48.4h131.8
				c-6.5,19.8-17,56.1-17,85.3c0,46.3,39.3,85.3,64,85.3c22.2,0,38-12.5,38.7-13c2.5-2,4-5.1,4-8.3v-72.3l61.4-133.1l2.6-1.3V44.6
				C324,36.4,302,32,288,32H92.2c-23.2,0-43.6,15.7-48.3,37.3c-2.5,11.1-1,22.3,3.9,32c-15.8,7.9-26.4,24.2-26.4,42.7
				c0,7.6,1.7,14.8,5,21.3C10.6,173.3,0,189.5,0,208z"/>
		</g>
	</g>
</g>
</svg>
