<svg id="Layer_1" data-name="Layer 1" xmlns="http://www.w3.org/2000/svg" viewBox="0 0 512 512"><defs><style>.cls-1{fill:#fff;}.cls-2{fill:#ce443c;}</style></defs><title>movies_icon_wCircle</title><circle class="cls-1" cx="256" cy="256" r="256"/><path class="cls-2" d="M118.61,272.54v90.15a30.09,30.09,0,0,0,30.05,30.05H365a30.08,30.08,0,0,0,30.05-30.05V272.54Z"/><polygon class="cls-2" points="249.22 131.84 204.24 142.51 241.93 197.96 290.65 186.88 249.22 131.84"/><polygon class="cls-2" points="191.74 145.48 143.27 156.97 180.55 211.91 229.34 200.81 191.74 145.48"/><path class="cls-2" d="M394.89,156.8,384.66,118a18.17,18.17,0,0,0-21.56-13.2l-40.38,9.6L361,170.89l29.36-6.68a6,6,0,0,0,3.81-2.75A6.13,6.13,0,0,0,394.89,156.8Z"/><polygon class="cls-2" points="310.2 117.37 261.99 128.81 303.48 183.97 348.45 173.74 310.2 117.37"/><polygon class="cls-2" points="179.18 212.45 159.95 260.51 207.1 260.51 226.34 212.45 179.18 212.45"/><polygon class="cls-2" points="239.28 212.45 220.05 260.51 267.21 260.51 286.44 212.45 239.28 212.45"/><path class="cls-2" d="M389.07,212.45H359.49l-19.24,48.08h54.83V218.46A6,6,0,0,0,389.07,212.45Z"/><polygon class="cls-2" points="299.38 212.45 280.15 260.51 327.3 260.51 346.54 212.45 299.38 212.45"/><path class="cls-2" d="M130.76,160,121,162.27a18,18,0,0,0-13.5,22l11.14,44.05v32.23H147l18.05-45.08,2.93-.66Z"/></svg>