<?xml version="1.0"?>
<svg xmlns="http://www.w3.org/2000/svg" xmlns:xlink="http://www.w3.org/1999/xlink" version="1.1" id="Capa_1" x="0px" y="0px" viewBox="0 0 448 448" style="enable-background:new 0 0 448 448;" xml:space="preserve" width="512px" height="512px" class=""><g><path d="M442.016,3.5c-3.744-3.04-8.672-4.096-13.472-3.136l-288,64C133.216,65.996,128,72.492,128,79.98V333.1  c-13.408-8.128-29.92-13.12-48-13.12c-44.096,0-80,28.704-80,64s35.904,64,80,64s80-28.704,80-64V188.812l256-56.896V269.1  c-13.408-8.128-29.92-13.12-48-13.12c-44.128,0-80,28.704-80,64s35.872,64,80,64s80-28.704,80-64v-304  C448,11.116,445.824,6.54,442.016,3.5z" data-original="#000000" class="active-path" data-old_color="#000000" fill="#002148"/></g> </svg>
