<svg id="Layer_1" data-name="Layer 1" xmlns="http://www.w3.org/2000/svg" viewBox="0 0 512 512"><defs><style>.cls-1{fill:#fff;}.cls-2{fill:#002148;}</style></defs><title>music_icon_wCircle</title><circle class="cls-1" cx="256" cy="256" r="256"/><path class="cls-2" d="M375.24,113.45a10.19,10.19,0,0,0-8.47-2l-181,40.21a10.07,10.07,0,0,0-7.88,9.82v159a58.24,58.24,0,0,0-30.16-8.24c-27.71,0-50.27,18-50.27,40.21s22.56,40.22,50.27,40.22S198,374.7,198,352.52V229.89l160.85-35.75v86.2a58.13,58.13,0,0,0-30.16-8.25c-27.73,0-50.27,18-50.27,40.22s22.54,40.21,50.27,40.21,50.27-18,50.27-40.21v-191A10,10,0,0,0,375.24,113.45Z"/></svg>