<?xml version="1.0" encoding="utf-8"?>
<!-- Generator: Adobe Illustrator 24.0.0, SVG Export Plug-In . SVG Version: 6.00 Build 0)  -->
<svg version="1.1" id="Layer_1" xmlns="http://www.w3.org/2000/svg" xmlns:xlink="http://www.w3.org/1999/xlink" x="0px" y="0px"
	 viewBox="0 0 512 512" style="enable-background:new 0 0 512 512;" xml:space="preserve">
<style type="text/css">
	.st0{fill:#FFFFFF;}
	.st1{fill:#EC6C3B;}
</style>
<title>music_icon_wCircle</title>
<circle class="st0" cx="256" cy="256" r="256"/>
<path class="st1" d="M375.2,113.4c-2.4-1.9-5.5-2.6-8.5-2l-181,40.2c-4.6,1-7.9,5.1-7.9,9.8v159c-9.1-5.4-19.5-8.3-30.2-8.2
	c-27.7,0-50.3,18-50.3,40.2s22.6,40.2,50.3,40.2s50.3-18,50.3-40.2V229.9l160.9-35.8v86.2c-9.1-5.5-19.5-8.3-30.2-8.2
	c-27.7,0-50.3,18-50.3,40.2s22.5,40.2,50.3,40.2s50.3-18,50.3-40.2v-191C379,118.3,377.6,115.4,375.2,113.4z"/>
</svg>
