<svg id="Layer_1" data-name="Layer 1" xmlns="http://www.w3.org/2000/svg" viewBox="0 0 512 512"><defs><style>.cls-1{fill:#fff;}.cls-2{fill:#212a33;}</style></defs><title>user (1)</title><rect class="cls-1" width="512" height="512"/><path class="cls-2" d="M253.86,249.79c22.46,0,41.9-8,57.79-23.95s24-35.33,24-57.79-8.06-41.9-24-57.79-35.34-23.94-57.79-23.94-41.9,8.05-57.79,23.94-23.95,35.33-23.95,57.79,8.06,41.91,23.95,57.8S231.41,249.79,253.86,249.79Z"/><path class="cls-2" d="M396.88,347.27a201,201,0,0,0-2.75-21.44,169.65,169.65,0,0,0-5.27-21.56A106.73,106.73,0,0,0,380,284.16a76,76,0,0,0-13.36-17.42,59,59,0,0,0-19.2-12.06,66.43,66.43,0,0,0-24.51-4.43c-3.46,0-6.81,1.42-13.28,5.63-4,2.6-8.64,5.6-13.84,8.92a79.38,79.38,0,0,1-17.91,7.89,69.51,69.51,0,0,1-43.8,0,78.84,78.84,0,0,1-17.9-7.89c-5.15-3.29-9.81-6.29-13.85-8.92-6.46-4.22-9.81-5.64-13.28-5.64a66.35,66.35,0,0,0-24.5,4.44,58.81,58.81,0,0,0-19.21,12.07A76,76,0,0,0,132,284.16a107.33,107.33,0,0,0-8.86,20.11,169.65,169.65,0,0,0-5.27,21.56,202.82,202.82,0,0,0-2.75,21.45c-.45,6.49-.68,13.23-.68,20,0,17.71,5.63,32.06,16.74,42.63s25.48,15.73,43.13,15.73H337.7c17.65,0,32.16-5.29,43.13-15.73s16.74-24.91,16.74-42.63C397.56,360.48,397.33,353.73,396.88,347.27Z"/></svg>